<svg width="365" height="650" viewBox="0 0 365 650" fill="none" xmlns="http://www.w3.org/2000/svg">
<mask id="path-1-inside-1_18055_50185" fill="white">
<path d="M0 76C0 48.3858 22.3858 26 50 26H315C342.614 26 365 48.3858 365 76V600C365 627.614 342.614 650 315 650H50C22.3858 650 0 627.614 0 600V76Z"/>
</mask>
<path d="M-6 76C-6 45.0721 19.0721 20 50 20H315C345.928 20 371 45.0721 371 76H359C359 51.6995 339.301 32 315 32H50C25.6995 32 6 51.6995 6 76H-6ZM371 618C371 648.928 345.928 674 315 674H50C19.0721 674 -6 648.928 -6 618L6 600C6 614.359 25.6995 626 50 626H315C339.301 626 359 614.359 359 600L371 618ZM50 674C19.0721 674 -6 648.928 -6 618V76C-6 45.0721 19.0721 20 50 20V32C25.6995 32 6 51.6995 6 76V600C6 614.359 25.6995 626 50 626V674ZM315 20C345.928 20 371 45.0721 371 76V618C371 648.928 345.928 674 315 674V626C339.301 626 359 614.359 359 600V76C359 51.6995 339.301 32 315 32V20Z" fill="#11142C" fill-opacity="0.25" mask="url(#path-1-inside-1_18055_50185)"/>
<g clip-path="url(#clip0_18055_50185)">
<path d="M161.875 181.5V214.206L129.169 181.5H161.875ZM161.875 284.625L161.875 346.5H100V284.625H161.875ZM182.5 160.875L79.375 160.875L182.5 264H79.375L79.375 367.125H182.5L182.5 264V160.875Z" fill="#343A62"/>
<path d="M265 284.625V317.331L232.294 284.625H265ZM285.625 264H182.5L285.625 367.125V264Z" fill="#343A62"/>
<path d="M234.062 181.5C251.121 181.5 265 195.379 265 212.437C265 229.496 251.121 243.375 234.062 243.375C217.004 243.375 203.125 229.496 203.125 212.437C203.125 195.379 217.004 181.5 234.062 181.5ZM234.062 160.875C205.589 160.875 182.5 183.964 182.5 212.437C182.5 240.911 205.589 264 234.062 264C262.536 264 285.625 240.911 285.625 212.437C285.625 183.964 262.536 160.875 234.062 160.875Z" fill="#343A62"/>
</g>
<path d="M132.909 511.789C132.843 511.896 132.776 511.976 132.706 512.027C132.64 512.074 132.554 512.097 132.447 512.097C132.344 512.097 132.232 512.062 132.111 511.992C131.994 511.917 131.856 511.838 131.698 511.754C131.539 511.67 131.357 511.593 131.152 511.523C130.946 511.448 130.706 511.411 130.431 511.411C129.945 511.411 129.581 511.521 129.339 511.74C129.096 511.955 128.975 512.237 128.975 512.587C128.975 512.811 129.04 512.998 129.171 513.147C129.306 513.292 129.481 513.418 129.696 513.525C129.915 513.632 130.162 513.728 130.438 513.812C130.713 513.896 130.995 513.989 131.285 514.092C131.574 514.19 131.856 514.307 132.132 514.442C132.407 514.577 132.652 514.748 132.867 514.953C133.086 515.158 133.261 515.41 133.392 515.709C133.527 516.003 133.595 516.362 133.595 516.787C133.595 517.249 133.513 517.683 133.35 518.089C133.191 518.49 132.96 518.843 132.657 519.146C132.353 519.445 131.978 519.68 131.53 519.853C131.086 520.026 130.582 520.112 130.018 520.112C129.696 520.112 129.374 520.079 129.052 520.014C128.734 519.949 128.426 519.858 128.128 519.741C127.834 519.624 127.556 519.484 127.295 519.321C127.033 519.158 126.805 518.976 126.609 518.775L127.225 517.781C127.276 517.706 127.344 517.646 127.428 517.599C127.512 517.548 127.6 517.522 127.694 517.522C127.82 517.522 127.953 517.569 128.093 517.662C128.233 517.755 128.394 517.858 128.576 517.97C128.758 518.082 128.968 518.185 129.206 518.278C129.448 518.371 129.738 518.418 130.074 518.418C130.564 518.418 130.942 518.306 131.208 518.082C131.478 517.858 131.614 517.524 131.614 517.081C131.614 516.824 131.546 516.617 131.411 516.458C131.28 516.299 131.107 516.166 130.893 516.059C130.678 515.952 130.433 515.861 130.158 515.786C129.882 515.707 129.6 515.62 129.311 515.527C129.021 515.434 128.739 515.322 128.464 515.191C128.188 515.06 127.943 514.888 127.729 514.673C127.514 514.458 127.339 514.192 127.204 513.875C127.073 513.558 127.008 513.163 127.008 512.692C127.008 512.314 127.082 511.948 127.232 511.593C127.381 511.238 127.6 510.923 127.89 510.648C128.179 510.373 128.534 510.151 128.954 509.983C129.378 509.815 129.864 509.731 130.41 509.731C131.021 509.731 131.586 509.827 132.104 510.018C132.626 510.205 133.067 510.466 133.427 510.802L132.909 511.789ZM137.029 520.112C136.703 520.112 136.413 520.065 136.161 519.972C135.909 519.874 135.697 519.736 135.524 519.559C135.352 519.382 135.221 519.167 135.132 518.915C135.044 518.663 134.999 518.378 134.999 518.061V514.169H134.32C134.218 514.169 134.129 514.136 134.054 514.071C133.984 514.006 133.949 513.908 133.949 513.777V513.021L135.104 512.811L135.496 510.942C135.548 510.732 135.69 510.627 135.923 510.627H136.931V512.825H138.793V514.169H136.931V517.935C136.931 518.136 136.978 518.294 137.071 518.411C137.169 518.528 137.307 518.586 137.484 518.586C137.578 518.586 137.657 518.577 137.722 518.558C137.788 518.535 137.844 518.511 137.89 518.488C137.937 518.46 137.979 518.437 138.016 518.418C138.058 518.395 138.1 518.383 138.142 518.383C138.198 518.383 138.245 518.397 138.282 518.425C138.32 518.448 138.357 518.49 138.394 518.551L138.975 519.475C138.709 519.685 138.408 519.844 138.072 519.951C137.736 520.058 137.389 520.112 137.029 520.112ZM143.601 516.983C143.13 517.006 142.738 517.048 142.425 517.109C142.113 517.165 141.863 517.24 141.676 517.333C141.494 517.426 141.364 517.534 141.284 517.655C141.21 517.772 141.172 517.9 141.172 518.04C141.172 518.32 141.249 518.518 141.403 518.635C141.562 518.752 141.781 518.81 142.061 518.81C142.383 518.81 142.661 518.754 142.894 518.642C143.132 518.525 143.368 518.346 143.601 518.103V516.983ZM139.667 513.784C140.092 513.401 140.561 513.117 141.074 512.93C141.588 512.739 142.143 512.643 142.74 512.643C143.17 512.643 143.552 512.713 143.888 512.853C144.229 512.993 144.516 513.189 144.749 513.441C144.987 513.688 145.169 513.985 145.295 514.33C145.421 514.675 145.484 515.053 145.484 515.464V520H144.602C144.42 520 144.28 519.974 144.182 519.923C144.089 519.872 144.012 519.764 143.951 519.601L143.797 519.139C143.615 519.298 143.438 519.438 143.265 519.559C143.097 519.68 142.922 519.783 142.74 519.867C142.558 519.946 142.362 520.007 142.152 520.049C141.947 520.091 141.716 520.112 141.459 520.112C141.142 520.112 140.853 520.07 140.591 519.986C140.33 519.902 140.104 519.778 139.912 519.615C139.726 519.447 139.581 519.239 139.478 518.992C139.376 518.745 139.324 518.46 139.324 518.138C139.324 517.872 139.392 517.606 139.527 517.34C139.663 517.074 139.894 516.834 140.22 516.619C140.552 516.4 140.99 516.22 141.536 516.08C142.087 515.935 142.775 515.854 143.601 515.835V515.464C143.601 515.011 143.506 514.68 143.314 514.47C143.123 514.255 142.848 514.148 142.488 514.148C142.222 514.148 142.001 514.181 141.823 514.246C141.646 514.307 141.49 514.374 141.354 514.449C141.224 514.519 141.1 514.587 140.983 514.652C140.867 514.713 140.731 514.743 140.577 514.743C140.442 514.743 140.328 514.71 140.234 514.645C140.146 514.575 140.071 514.493 140.01 514.4L139.667 513.784ZM148.805 513.973C149.034 513.562 149.298 513.238 149.596 513C149.895 512.762 150.245 512.643 150.646 512.643C150.973 512.643 151.239 512.72 151.444 512.874L151.318 514.302C151.295 514.395 151.258 514.461 151.206 514.498C151.16 514.531 151.094 514.547 151.01 514.547C150.936 514.547 150.828 514.538 150.688 514.519C150.548 514.496 150.418 514.484 150.296 514.484C150.119 514.484 149.96 514.51 149.82 514.561C149.685 514.612 149.564 514.685 149.456 514.778C149.349 514.871 149.251 514.986 149.162 515.121C149.078 515.256 148.999 515.41 148.924 515.583V520H146.992V512.783H148.133C148.329 512.783 148.465 512.818 148.539 512.888C148.614 512.958 148.668 513.079 148.7 513.252L148.805 513.973ZM154.762 520.112C154.435 520.112 154.146 520.065 153.894 519.972C153.642 519.874 153.429 519.736 153.257 519.559C153.084 519.382 152.953 519.167 152.865 518.915C152.776 518.663 152.732 518.378 152.732 518.061V514.169H152.053C151.95 514.169 151.861 514.136 151.787 514.071C151.717 514.006 151.682 513.908 151.682 513.777V513.021L152.837 512.811L153.229 510.942C153.28 510.732 153.422 510.627 153.656 510.627H154.664V512.825H156.526V514.169H154.664V517.935C154.664 518.136 154.71 518.294 154.804 518.411C154.902 518.528 155.039 518.586 155.217 518.586C155.31 518.586 155.389 518.577 155.455 518.558C155.52 518.535 155.576 518.511 155.623 518.488C155.669 518.46 155.711 518.437 155.749 518.418C155.791 518.395 155.833 518.383 155.875 518.383C155.931 518.383 155.977 518.397 156.015 518.425C156.052 518.448 156.089 518.49 156.127 518.551L156.708 519.475C156.442 519.685 156.141 519.844 155.805 519.951C155.469 520.058 155.121 520.112 154.762 520.112ZM161.408 520V514.169L160.848 514.071C160.703 514.043 160.584 513.992 160.491 513.917C160.402 513.842 160.358 513.735 160.358 513.595V512.825H161.408V512.349C161.408 511.938 161.471 511.567 161.597 511.236C161.728 510.9 161.912 510.618 162.15 510.389C162.388 510.156 162.68 509.976 163.025 509.85C163.37 509.724 163.76 509.661 164.194 509.661C164.362 509.661 164.521 509.673 164.67 509.696C164.824 509.715 164.978 509.745 165.132 509.787L165.09 510.739C165.081 510.884 165.018 510.979 164.901 511.026C164.789 511.068 164.663 511.089 164.523 511.089C164.327 511.089 164.15 511.11 163.991 511.152C163.837 511.194 163.706 511.266 163.599 511.369C163.492 511.467 163.41 511.602 163.354 511.775C163.298 511.943 163.27 512.153 163.27 512.405V512.825H165.062V514.169H163.333V520H161.408ZM167.768 513.973C167.997 513.562 168.261 513.238 168.559 513C168.858 512.762 169.208 512.643 169.609 512.643C169.936 512.643 170.202 512.72 170.407 512.874L170.281 514.302C170.258 514.395 170.221 514.461 170.169 514.498C170.123 514.531 170.057 514.547 169.973 514.547C169.899 514.547 169.791 514.538 169.651 514.519C169.511 514.496 169.381 514.484 169.259 514.484C169.082 514.484 168.923 514.51 168.783 514.561C168.648 514.612 168.527 514.685 168.419 514.778C168.312 514.871 168.214 514.986 168.125 515.121C168.041 515.256 167.962 515.41 167.887 515.583V520H165.955V512.783H167.096C167.292 512.783 167.428 512.818 167.502 512.888C167.577 512.958 167.631 513.079 167.663 513.252L167.768 513.973ZM174.324 512.671C174.865 512.671 175.357 512.757 175.801 512.93C176.244 513.103 176.624 513.35 176.942 513.672C177.259 513.989 177.504 514.377 177.677 514.834C177.849 515.291 177.936 515.807 177.936 516.381C177.936 516.955 177.849 517.473 177.677 517.935C177.504 518.392 177.259 518.782 176.942 519.104C176.624 519.426 176.244 519.673 175.801 519.846C175.357 520.019 174.865 520.105 174.324 520.105C173.778 520.105 173.281 520.019 172.833 519.846C172.389 519.673 172.009 519.426 171.692 519.104C171.374 518.782 171.127 518.392 170.95 517.935C170.777 517.473 170.691 516.955 170.691 516.381C170.691 515.807 170.777 515.291 170.95 514.834C171.127 514.377 171.374 513.989 171.692 513.672C172.009 513.35 172.389 513.103 172.833 512.93C173.281 512.757 173.778 512.671 174.324 512.671ZM174.324 518.656C174.874 518.656 175.283 518.467 175.549 518.089C175.815 517.706 175.948 517.139 175.948 516.388C175.948 515.641 175.815 515.079 175.549 514.701C175.283 514.318 174.874 514.127 174.324 514.127C173.759 514.127 173.344 514.318 173.078 514.701C172.812 515.079 172.679 515.641 172.679 516.388C172.679 517.139 172.812 517.706 173.078 518.089C173.344 518.467 173.759 518.656 174.324 518.656ZM179.149 520V512.783H180.339C180.581 512.783 180.742 512.895 180.822 513.119L180.934 513.588C181.06 513.457 181.188 513.336 181.319 513.224C181.454 513.112 181.599 513.016 181.753 512.937C181.907 512.853 182.072 512.788 182.25 512.741C182.432 512.694 182.628 512.671 182.838 512.671C183.281 512.671 183.647 512.79 183.937 513.028C184.226 513.261 184.445 513.574 184.595 513.966C184.711 513.737 184.854 513.541 185.022 513.378C185.194 513.21 185.381 513.075 185.582 512.972C185.787 512.869 186.002 512.795 186.226 512.748C186.454 512.697 186.683 512.671 186.912 512.671C187.318 512.671 187.677 512.732 187.99 512.853C188.302 512.974 188.564 513.154 188.774 513.392C188.988 513.625 189.152 513.912 189.264 514.253C189.376 514.594 189.432 514.981 189.432 515.415V520H187.5V515.415C187.5 514.57 187.138 514.148 186.415 514.148C186.251 514.148 186.1 514.176 185.96 514.232C185.824 514.283 185.703 514.363 185.596 514.47C185.493 514.577 185.411 514.71 185.351 514.869C185.295 515.028 185.267 515.21 185.267 515.415V520H183.335V515.415C183.335 514.958 183.244 514.633 183.062 514.442C182.884 514.246 182.621 514.148 182.271 514.148C182.047 514.148 181.834 514.202 181.634 514.309C181.438 514.412 181.253 514.556 181.081 514.743V520H179.149ZM198.77 514.267C198.719 514.346 198.665 514.405 198.609 514.442C198.558 514.475 198.486 514.491 198.392 514.491C198.299 514.491 198.203 514.468 198.105 514.421C198.007 514.374 197.898 514.325 197.776 514.274C197.655 514.218 197.515 514.167 197.356 514.12C197.202 514.073 197.023 514.05 196.817 514.05C196.505 514.05 196.262 514.115 196.089 514.246C195.917 514.372 195.83 514.54 195.83 514.75C195.83 514.895 195.879 515.016 195.977 515.114C196.075 515.212 196.204 515.298 196.362 515.373C196.526 515.443 196.71 515.511 196.915 515.576C197.121 515.637 197.331 515.704 197.545 515.779C197.765 515.854 197.977 515.94 198.182 516.038C198.388 516.136 198.57 516.26 198.728 516.409C198.892 516.554 199.022 516.731 199.12 516.941C199.218 517.146 199.267 517.396 199.267 517.69C199.267 518.04 199.202 518.364 199.071 518.663C198.945 518.957 198.759 519.211 198.511 519.426C198.264 519.641 197.956 519.809 197.587 519.93C197.219 520.051 196.794 520.112 196.313 520.112C196.066 520.112 195.821 520.089 195.578 520.042C195.336 520 195.105 519.939 194.885 519.86C194.666 519.776 194.461 519.68 194.269 519.573C194.078 519.466 193.912 519.349 193.772 519.223L194.22 518.502C194.272 518.418 194.335 518.353 194.409 518.306C194.489 518.259 194.589 518.236 194.71 518.236C194.827 518.236 194.934 518.266 195.032 518.327C195.13 518.383 195.24 518.446 195.361 518.516C195.483 518.581 195.625 518.644 195.788 518.705C195.956 518.761 196.164 518.789 196.411 518.789C196.598 518.789 196.759 518.768 196.894 518.726C197.03 518.684 197.139 518.628 197.223 518.558C197.307 518.483 197.368 518.402 197.405 518.313C197.447 518.22 197.468 518.124 197.468 518.026C197.468 517.867 197.417 517.739 197.314 517.641C197.216 517.538 197.086 517.45 196.922 517.375C196.764 517.3 196.579 517.233 196.369 517.172C196.159 517.111 195.945 517.044 195.725 516.969C195.511 516.894 195.298 516.806 195.088 516.703C194.883 516.6 194.699 516.472 194.535 516.318C194.377 516.159 194.246 515.966 194.143 515.737C194.045 515.508 193.996 515.231 193.996 514.904C193.996 514.605 194.055 514.323 194.171 514.057C194.288 513.786 194.463 513.548 194.696 513.343C194.93 513.138 195.219 512.974 195.564 512.853C195.914 512.732 196.318 512.671 196.775 512.671C197.289 512.671 197.755 512.755 198.175 512.923C198.595 513.091 198.941 513.31 199.211 513.581L198.77 514.267ZM205.713 514.393C205.657 514.468 205.601 514.526 205.545 514.568C205.489 514.605 205.409 514.624 205.307 514.624C205.213 514.624 205.122 514.598 205.034 514.547C204.95 514.491 204.852 514.433 204.74 514.372C204.628 514.307 204.495 514.248 204.341 514.197C204.187 514.141 203.995 514.113 203.767 514.113C203.477 514.113 203.225 514.167 203.011 514.274C202.801 514.377 202.626 514.526 202.486 514.722C202.346 514.918 202.241 515.156 202.171 515.436C202.105 515.716 202.073 516.031 202.073 516.381C202.073 517.118 202.22 517.683 202.514 518.075C202.812 518.467 203.218 518.663 203.732 518.663C203.909 518.663 204.061 518.649 204.187 518.621C204.317 518.588 204.429 518.549 204.523 518.502C204.621 518.455 204.705 518.404 204.775 518.348C204.845 518.292 204.91 518.241 204.971 518.194C205.036 518.147 205.099 518.11 205.16 518.082C205.225 518.049 205.297 518.033 205.377 518.033C205.526 518.033 205.643 518.089 205.727 518.201L206.28 518.901C206.074 519.139 205.855 519.337 205.622 519.496C205.388 519.65 205.146 519.774 204.894 519.867C204.646 519.956 204.394 520.016 204.138 520.049C203.881 520.086 203.627 520.105 203.375 520.105C202.931 520.105 202.511 520.023 202.115 519.86C201.718 519.692 201.37 519.449 201.072 519.132C200.773 518.815 200.535 518.425 200.358 517.963C200.185 517.501 200.099 516.974 200.099 516.381C200.099 515.854 200.176 515.364 200.33 514.911C200.484 514.458 200.71 514.066 201.009 513.735C201.307 513.404 201.676 513.145 202.115 512.958C202.558 512.767 203.069 512.671 203.648 512.671C204.198 512.671 204.681 512.76 205.097 512.937C205.512 513.114 205.885 513.371 206.217 513.707L205.713 514.393ZM209.071 513.973C209.3 513.562 209.563 513.238 209.862 513C210.161 512.762 210.511 512.643 210.912 512.643C211.239 512.643 211.505 512.72 211.71 512.874L211.584 514.302C211.561 514.395 211.523 514.461 211.472 514.498C211.425 514.531 211.36 514.547 211.276 514.547C211.201 514.547 211.094 514.538 210.954 514.519C210.814 514.496 210.683 514.484 210.562 514.484C210.385 514.484 210.226 514.51 210.086 514.561C209.951 514.612 209.829 514.685 209.722 514.778C209.615 514.871 209.517 514.986 209.428 515.121C209.344 515.256 209.265 515.41 209.19 515.583V520H207.258V512.783H208.399C208.595 512.783 208.73 512.818 208.805 512.888C208.88 512.958 208.933 513.079 208.966 513.252L209.071 513.973ZM216.226 516.983C215.755 517.006 215.363 517.048 215.05 517.109C214.738 517.165 214.488 517.24 214.301 517.333C214.119 517.426 213.989 517.534 213.909 517.655C213.835 517.772 213.797 517.9 213.797 518.04C213.797 518.32 213.874 518.518 214.028 518.635C214.187 518.752 214.406 518.81 214.686 518.81C215.008 518.81 215.286 518.754 215.519 518.642C215.757 518.525 215.993 518.346 216.226 518.103V516.983ZM212.292 513.784C212.717 513.401 213.186 513.117 213.699 512.93C214.213 512.739 214.768 512.643 215.365 512.643C215.795 512.643 216.177 512.713 216.513 512.853C216.854 512.993 217.141 513.189 217.374 513.441C217.612 513.688 217.794 513.985 217.92 514.33C218.046 514.675 218.109 515.053 218.109 515.464V520H217.227C217.045 520 216.905 519.974 216.807 519.923C216.714 519.872 216.637 519.764 216.576 519.601L216.422 519.139C216.24 519.298 216.063 519.438 215.89 519.559C215.722 519.68 215.547 519.783 215.365 519.867C215.183 519.946 214.987 520.007 214.777 520.049C214.572 520.091 214.341 520.112 214.084 520.112C213.767 520.112 213.478 520.07 213.216 519.986C212.955 519.902 212.729 519.778 212.537 519.615C212.351 519.447 212.206 519.239 212.103 518.992C212.001 518.745 211.949 518.46 211.949 518.138C211.949 517.872 212.017 517.606 212.152 517.34C212.288 517.074 212.519 516.834 212.845 516.619C213.177 516.4 213.615 516.22 214.161 516.08C214.712 515.935 215.4 515.854 216.226 515.835V515.464C216.226 515.011 216.131 514.68 215.939 514.47C215.748 514.255 215.473 514.148 215.113 514.148C214.847 514.148 214.626 514.181 214.448 514.246C214.271 514.307 214.115 514.374 213.979 514.449C213.849 514.519 213.725 514.587 213.608 514.652C213.492 514.713 213.356 514.743 213.202 514.743C213.067 514.743 212.953 514.71 212.859 514.645C212.771 514.575 212.696 514.493 212.635 514.4L212.292 513.784ZM222 520.112C221.673 520.112 221.384 520.065 221.132 519.972C220.88 519.874 220.668 519.736 220.495 519.559C220.322 519.382 220.192 519.167 220.103 518.915C220.014 518.663 219.97 518.378 219.97 518.061V514.169H219.291C219.188 514.169 219.1 514.136 219.025 514.071C218.955 514.006 218.92 513.908 218.92 513.777V513.021L220.075 512.811L220.467 510.942C220.518 510.732 220.661 510.627 220.894 510.627H221.902V512.825H223.764V514.169H221.902V517.935C221.902 518.136 221.949 518.294 222.042 518.411C222.14 518.528 222.278 518.586 222.455 518.586C222.548 518.586 222.628 518.577 222.693 518.558C222.758 518.535 222.814 518.511 222.861 518.488C222.908 518.46 222.95 518.437 222.987 518.418C223.029 518.395 223.071 518.383 223.113 518.383C223.169 518.383 223.216 518.397 223.253 518.425C223.29 518.448 223.328 518.49 223.365 518.551L223.946 519.475C223.68 519.685 223.379 519.844 223.043 519.951C222.707 520.058 222.359 520.112 222 520.112ZM229.967 514.393C229.911 514.468 229.855 514.526 229.799 514.568C229.743 514.605 229.663 514.624 229.561 514.624C229.467 514.624 229.376 514.598 229.288 514.547C229.204 514.491 229.106 514.433 228.994 514.372C228.882 514.307 228.749 514.248 228.595 514.197C228.441 514.141 228.249 514.113 228.021 514.113C227.731 514.113 227.479 514.167 227.265 514.274C227.055 514.377 226.88 514.526 226.74 514.722C226.6 514.918 226.495 515.156 226.425 515.436C226.359 515.716 226.327 516.031 226.327 516.381C226.327 517.118 226.474 517.683 226.768 518.075C227.066 518.467 227.472 518.663 227.986 518.663C228.163 518.663 228.315 518.649 228.441 518.621C228.571 518.588 228.683 518.549 228.777 518.502C228.875 518.455 228.959 518.404 229.029 518.348C229.099 518.292 229.164 518.241 229.225 518.194C229.29 518.147 229.353 518.11 229.414 518.082C229.479 518.049 229.551 518.033 229.631 518.033C229.78 518.033 229.897 518.089 229.981 518.201L230.534 518.901C230.328 519.139 230.109 519.337 229.876 519.496C229.642 519.65 229.4 519.774 229.148 519.867C228.9 519.956 228.648 520.016 228.392 520.049C228.135 520.086 227.881 520.105 227.629 520.105C227.185 520.105 226.765 520.023 226.369 519.86C225.972 519.692 225.624 519.449 225.326 519.132C225.027 518.815 224.789 518.425 224.612 517.963C224.439 517.501 224.353 516.974 224.353 516.381C224.353 515.854 224.43 515.364 224.584 514.911C224.738 514.458 224.964 514.066 225.263 513.735C225.561 513.404 225.93 513.145 226.369 512.958C226.812 512.767 227.323 512.671 227.902 512.671C228.452 512.671 228.935 512.76 229.351 512.937C229.766 513.114 230.139 513.371 230.471 513.707L229.967 514.393ZM233.444 513.49C233.579 513.369 233.719 513.259 233.864 513.161C234.013 513.058 234.17 512.972 234.333 512.902C234.501 512.827 234.678 512.771 234.865 512.734C235.056 512.692 235.262 512.671 235.481 512.671C235.873 512.671 236.221 512.739 236.524 512.874C236.827 513.009 237.082 513.198 237.287 513.441C237.497 513.684 237.653 513.973 237.756 514.309C237.863 514.645 237.917 515.014 237.917 515.415V520H235.992V515.415C235.992 515.014 235.899 514.703 235.712 514.484C235.525 514.26 235.25 514.148 234.886 514.148C234.615 514.148 234.361 514.206 234.123 514.323C233.885 514.44 233.659 514.603 233.444 514.813V520H231.512V509.563H233.444V513.49Z" fill="white"/>
<path d="M35.4648 547.918C35.0156 548.035 34.4219 548.094 33.6836 548.094C32.9492 548.094 32.3184 548.002 31.791 547.818C31.2676 547.635 30.8164 547.363 30.4375 547.004C29.625 546.246 29.2188 545.191 29.2188 543.84C29.2188 542.957 29.4297 542.195 29.8516 541.555C30.4219 540.684 31.2988 540.129 32.4824 539.891C32.8457 539.82 33.291 539.785 33.8184 539.785C34.3457 539.785 34.8008 539.811 35.1836 539.861V540.986C34.8477 540.9 34.3672 540.857 33.7422 540.857C33.1211 540.857 32.6113 540.928 32.2129 541.068C31.8145 541.209 31.4844 541.41 31.2227 541.672C30.6992 542.184 30.4375 542.906 30.4375 543.84C30.4375 544.789 30.6953 545.549 31.2109 546.119C31.7734 546.74 32.5762 547.051 33.6191 547.051C33.8613 547.051 34.0859 547.041 34.293 547.021V544.016H35.4648V547.918ZM36.9648 544.965C36.9648 544.016 37.2676 543.246 37.873 542.656C38.4395 542.105 39.1406 541.83 39.9766 541.83C40.7969 541.83 41.4824 542.105 42.0332 542.656C42.6191 543.242 42.9121 544.012 42.9121 544.965C42.9121 545.914 42.6172 546.68 42.0273 547.262C41.4688 547.816 40.7832 548.094 39.9707 548.094C39.1465 548.094 38.4473 547.816 37.873 547.262C37.2676 546.68 36.9648 545.914 36.9648 544.965ZM38.1836 544.965C38.1836 545.965 38.5039 546.645 39.1445 547.004C39.3711 547.129 39.6426 547.191 39.959 547.191C40.2754 547.191 40.543 547.129 40.7617 547.004C40.9805 546.875 41.1602 546.707 41.3008 546.5C41.5625 546.102 41.6934 545.59 41.6934 544.965C41.6934 543.973 41.3789 543.293 40.75 542.926C40.5312 542.797 40.2695 542.732 39.9648 542.732C39.6602 542.732 39.3945 542.797 39.168 542.926C38.9453 543.051 38.7617 543.217 38.6172 543.424C38.3281 543.83 38.1836 544.344 38.1836 544.965ZM50.5234 547.074C50.6523 547.121 50.8477 547.145 51.1094 547.145C51.3711 547.145 51.5898 547.113 51.7656 547.051V547.988C51.6836 548.008 51.5645 548.02 51.4082 548.023L51.0391 548.035C50.957 548.035 50.8945 548.035 50.8516 548.035C50.0977 548.035 49.541 547.789 49.1816 547.297C48.8926 546.898 48.748 546.371 48.748 545.715V542.85H47.8809V542.299L48.748 541.953L49.0293 540.453H49.9199V541.953H51.7949V542.85H49.9199V545.709C49.9199 546.475 50.1211 546.93 50.5234 547.074ZM56.0723 542.867C55.4941 542.867 54.9785 543.064 54.5254 543.459V548H53.3535V539.281H54.5254V542.604C55.1582 542.107 55.8125 541.859 56.4883 541.859C57.2109 541.859 57.7402 542.074 58.0762 542.504C58.4277 542.957 58.6035 543.688 58.6035 544.695V548H57.4316V544.695C57.4316 543.727 57.168 543.148 56.6406 542.961C56.4727 542.898 56.2832 542.867 56.0723 542.867ZM64.1934 543.025C63.9785 542.963 63.7207 542.932 63.4199 542.932C63.123 542.932 62.8789 542.963 62.6875 543.025C62.4961 543.084 62.3281 543.156 62.1836 543.242C61.918 543.398 61.7246 543.574 61.6035 543.77V548H60.4316V541.953H61.5566L61.6035 542.791C61.8965 542.424 62.3242 542.148 62.8867 541.965C63.0898 541.895 63.3223 541.859 63.584 541.859C63.8457 541.859 64.0488 541.879 64.1934 541.918V543.025ZM64.9609 544.965C64.9609 544.016 65.2637 543.246 65.8691 542.656C66.4355 542.105 67.1367 541.83 67.9727 541.83C68.793 541.83 69.4785 542.105 70.0293 542.656C70.6152 543.242 70.9082 544.012 70.9082 544.965C70.9082 545.914 70.6133 546.68 70.0234 547.262C69.4648 547.816 68.7793 548.094 67.9668 548.094C67.1426 548.094 66.4434 547.816 65.8691 547.262C65.2637 546.68 64.9609 545.914 64.9609 544.965ZM66.1797 544.965C66.1797 545.965 66.5 546.645 67.1406 547.004C67.3672 547.129 67.6387 547.191 67.9551 547.191C68.2715 547.191 68.5391 547.129 68.7578 547.004C68.9766 546.875 69.1562 546.707 69.2969 546.5C69.5586 546.102 69.6895 545.59 69.6895 544.965C69.6895 543.973 69.375 543.293 68.7461 542.926C68.5273 542.797 68.2656 542.732 67.9609 542.732C67.6562 542.732 67.3906 542.797 67.1641 542.926C66.9414 543.051 66.7578 543.217 66.6133 543.424C66.3242 543.83 66.1797 544.344 66.1797 544.965ZM76.293 546.518V541.953H77.4648V548H76.4102L76.3047 547.361C75.7266 547.85 75.0879 548.094 74.3887 548.094C73.6465 548.094 73.1211 547.889 72.8125 547.479C72.4922 547.061 72.332 546.34 72.332 545.316V541.953H73.5039V545.258C73.5039 545.98 73.6074 546.473 73.8145 546.734C73.998 546.969 74.3477 547.086 74.8633 547.086C75.3828 547.086 75.8594 546.896 76.293 546.518ZM82.7969 550.309C82.457 550.395 82.0195 550.438 81.4844 550.438C80.9531 550.438 80.5645 550.398 80.3184 550.32V549.277C80.627 549.41 81.0039 549.477 81.4492 549.477C81.8984 549.48 82.2285 549.451 82.4395 549.389C82.6504 549.326 82.8164 549.225 82.9375 549.084C83.1562 548.83 83.2656 548.371 83.2656 547.707V547.396C82.9688 547.693 82.5781 547.9 82.0938 548.018C81.8984 548.064 81.7031 548.088 81.5078 548.088C81.3125 548.088 81.1211 548.066 80.9336 548.023C80.75 547.98 80.5664 547.912 80.3828 547.818C80.1992 547.721 80.0234 547.596 79.8555 547.443C79.6875 547.287 79.5391 547.094 79.4102 546.863C79.1211 546.363 78.9766 545.748 78.9766 545.018C78.9688 544.342 79.1641 543.748 79.5625 543.236C79.9062 542.791 80.3789 542.445 80.9805 542.199C81.5273 541.973 82.1191 541.859 82.7559 541.859C83.3926 541.859 83.9531 541.891 84.4375 541.953V547.707C84.4375 549.168 83.8906 550.035 82.7969 550.309ZM83.2656 542.809C83.0156 542.777 82.7695 542.762 82.5273 542.762C82.2852 542.762 82.0137 542.807 81.7129 542.896C81.4121 542.986 81.1484 543.123 80.9219 543.307C80.4258 543.709 80.1777 544.279 80.1777 545.018C80.1777 545.818 80.3711 546.402 80.7578 546.77C81.0469 547.047 81.4004 547.186 81.8184 547.186C82.3223 547.186 82.7461 547.008 83.0898 546.652C83.1719 546.562 83.2305 546.482 83.2656 546.412V542.809ZM89.0723 542.867C88.4941 542.867 87.9785 543.064 87.5254 543.459V548H86.3535V539.281H87.5254V542.604C88.1582 542.107 88.8125 541.859 89.4883 541.859C90.2109 541.859 90.7402 542.074 91.0762 542.504C91.4277 542.957 91.6035 543.688 91.6035 544.695V548H90.4316V544.695C90.4316 543.727 90.168 543.148 89.6406 542.961C89.4727 542.898 89.2832 542.867 89.0723 542.867ZM99.5195 547.074C99.6484 547.121 99.8438 547.145 100.105 547.145C100.367 547.145 100.586 547.113 100.762 547.051V547.988C100.68 548.008 100.561 548.02 100.404 548.023L100.035 548.035C99.9531 548.035 99.8906 548.035 99.8477 548.035C99.0938 548.035 98.5371 547.789 98.1777 547.297C97.8887 546.898 97.7441 546.371 97.7441 545.715V542.85H96.877V542.299L97.7441 541.953L98.0254 540.453H98.916V541.953H100.791V542.85H98.916V545.709C98.916 546.475 99.1172 546.93 99.5195 547.074ZM105.068 542.867C104.49 542.867 103.975 543.064 103.521 543.459V548H102.35V539.281H103.521V542.604C104.154 542.107 104.809 541.859 105.484 541.859C106.207 541.859 106.736 542.074 107.072 542.504C107.424 542.957 107.6 543.688 107.6 544.695V548H106.428V544.695C106.428 543.727 106.164 543.148 105.637 542.961C105.469 542.898 105.279 542.867 105.068 542.867ZM112.17 548.094C109.959 548.094 108.854 547.014 108.854 544.854C108.854 543.924 109.16 543.18 109.773 542.621C110.324 542.113 110.953 541.859 111.66 541.859C112.43 541.859 113.031 542.117 113.465 542.633C113.867 543.113 114.068 543.756 114.068 544.561V545.018H110.072C110.072 546.123 110.523 546.799 111.426 547.045C111.641 547.104 111.971 547.133 112.416 547.133C112.865 547.133 113.305 547.072 113.734 546.951V547.941C113.305 548.043 112.783 548.094 112.17 548.094ZM112.896 544.156C112.896 543.781 112.793 543.465 112.586 543.207C112.344 542.91 112.01 542.762 111.584 542.762C111.135 542.762 110.77 542.904 110.488 543.189C110.23 543.455 110.102 543.777 110.102 544.156H112.896ZM122.178 548.094C119.967 548.094 118.861 547.014 118.861 544.854C118.861 543.924 119.168 543.18 119.781 542.621C120.332 542.113 120.961 541.859 121.668 541.859C122.438 541.859 123.039 542.117 123.473 542.633C123.875 543.113 124.076 543.756 124.076 544.561V545.018H120.08C120.08 546.123 120.531 546.799 121.434 547.045C121.648 547.104 121.979 547.133 122.424 547.133C122.873 547.133 123.312 547.072 123.742 546.951V547.941C123.312 548.043 122.791 548.094 122.178 548.094ZM122.904 544.156C122.904 543.781 122.801 543.465 122.594 543.207C122.352 542.91 122.018 542.762 121.592 542.762C121.143 542.762 120.777 542.904 120.496 543.189C120.238 543.455 120.109 543.777 120.109 544.156H122.904ZM128.09 542.867C127.508 542.867 126.99 543.064 126.537 543.459V548H125.365V541.953H126.449L126.531 542.609C127.168 542.109 127.826 541.859 128.506 541.859C129.225 541.859 129.752 542.074 130.088 542.504C130.439 542.957 130.615 543.688 130.615 544.695V548H129.443V544.695C129.443 543.727 129.182 543.148 128.658 542.961C128.49 542.898 128.301 542.867 128.09 542.867ZM134.547 547.074C134.676 547.121 134.871 547.145 135.133 547.145C135.395 547.145 135.613 547.113 135.789 547.051V547.988C135.707 548.008 135.588 548.02 135.432 548.023L135.062 548.035C134.98 548.035 134.918 548.035 134.875 548.035C134.121 548.035 133.564 547.789 133.205 547.297C132.916 546.898 132.771 546.371 132.771 545.715V542.85H131.904V542.299L132.771 541.953L133.053 540.453H133.943V541.953H135.818V542.85H133.943V545.709C133.943 546.475 134.145 546.93 134.547 547.074ZM138.742 540.195C138.742 540.418 138.668 540.59 138.52 540.711C138.375 540.828 138.193 540.887 137.975 540.887C137.756 540.887 137.574 540.828 137.43 540.711C137.289 540.59 137.219 540.418 137.219 540.195C137.219 539.969 137.289 539.797 137.43 539.68C137.574 539.562 137.756 539.504 137.975 539.504C138.193 539.504 138.375 539.562 138.52 539.68C138.668 539.797 138.742 539.969 138.742 540.195ZM137.371 541.953H138.543V548H137.371V541.953ZM144.232 543.025C144.018 542.963 143.76 542.932 143.459 542.932C143.162 542.932 142.918 542.963 142.727 543.025C142.535 543.084 142.367 543.156 142.223 543.242C141.957 543.398 141.764 543.574 141.643 543.77V548H140.471V541.953H141.596L141.643 542.791C141.936 542.424 142.363 542.148 142.926 541.965C143.129 541.895 143.361 541.859 143.623 541.859C143.885 541.859 144.088 541.879 144.232 541.918V543.025ZM148.217 548.094C146.006 548.094 144.9 547.014 144.9 544.854C144.9 543.924 145.207 543.18 145.82 542.621C146.371 542.113 147 541.859 147.707 541.859C148.477 541.859 149.078 542.117 149.512 542.633C149.914 543.113 150.115 543.756 150.115 544.561V545.018H146.119C146.119 546.123 146.57 546.799 147.473 547.045C147.688 547.104 148.018 547.133 148.463 547.133C148.912 547.133 149.352 547.072 149.781 546.951V547.941C149.352 548.043 148.83 548.094 148.217 548.094ZM148.943 544.156C148.943 543.781 148.84 543.465 148.633 543.207C148.391 542.91 148.057 542.762 147.631 542.762C147.182 542.762 146.816 542.904 146.535 543.189C146.277 543.455 146.148 543.777 146.148 544.156H148.943ZM156.766 540.195C156.766 540.418 156.691 540.59 156.543 540.711C156.398 540.828 156.217 540.887 155.998 540.887C155.779 540.887 155.598 540.828 155.453 540.711C155.312 540.59 155.242 540.418 155.242 540.195C155.242 539.969 155.312 539.797 155.453 539.68C155.598 539.562 155.779 539.504 155.998 539.504C156.217 539.504 156.398 539.562 156.543 539.68C156.691 539.797 156.766 539.969 156.766 540.195ZM155.395 541.953H156.566V548H155.395V541.953ZM159.326 542.615C159.666 542.354 160.047 542.162 160.469 542.041C160.895 541.92 161.266 541.859 161.582 541.859C161.898 541.859 162.143 541.867 162.314 541.883V539.281H163.48V548H162.432L162.385 547.303C162.146 547.619 161.785 547.854 161.301 548.006C161.113 548.064 160.922 548.094 160.727 548.094C160.535 548.094 160.346 548.074 160.158 548.035C159.971 547.996 159.783 547.932 159.596 547.842C159.412 547.748 159.236 547.627 159.068 547.479C158.9 547.326 158.75 547.141 158.617 546.922C158.336 546.441 158.195 545.873 158.195 545.217C158.195 544.561 158.299 544.029 158.506 543.623C158.717 543.213 158.99 542.877 159.326 542.615ZM160.035 543.312C159.836 543.5 159.682 543.742 159.572 544.039C159.467 544.332 159.414 544.689 159.414 545.111C159.414 545.529 159.465 545.875 159.566 546.148C159.668 546.418 159.795 546.629 159.947 546.781C160.217 547.055 160.541 547.191 160.92 547.191C161.408 547.191 161.812 547.012 162.133 546.652C162.215 546.562 162.273 546.482 162.309 546.412V542.809L162.191 542.797C162.012 542.773 161.797 542.762 161.547 542.762C161.301 542.762 161.037 542.807 160.756 542.896C160.475 542.982 160.234 543.121 160.035 543.312ZM168.232 548.094C166.021 548.094 164.916 547.014 164.916 544.854C164.916 543.924 165.223 543.18 165.836 542.621C166.387 542.113 167.016 541.859 167.723 541.859C168.492 541.859 169.094 542.117 169.527 542.633C169.93 543.113 170.131 543.756 170.131 544.561V545.018H166.135C166.135 546.123 166.586 546.799 167.488 547.045C167.703 547.104 168.033 547.133 168.479 547.133C168.928 547.133 169.367 547.072 169.797 546.951V547.941C169.367 548.043 168.846 548.094 168.232 548.094ZM168.959 544.156C168.959 543.781 168.855 543.465 168.648 543.207C168.406 542.91 168.072 542.762 167.646 542.762C167.197 542.762 166.832 542.904 166.551 543.189C166.293 543.455 166.164 543.777 166.164 544.156H168.959ZM171.689 546.922C171.561 546.699 171.457 546.438 171.379 546.137C171.305 545.836 171.268 545.443 171.268 544.959C171.268 544.475 171.371 544.029 171.578 543.623C171.789 543.213 172.062 542.877 172.398 542.615C173.051 542.111 173.861 541.859 174.83 541.859C175.334 541.859 175.715 541.871 175.973 541.895C175.973 541.895 176.162 541.914 176.541 541.953V548H175.486L175.439 547.303C175.205 547.615 174.848 547.848 174.367 548C174.184 548.059 173.994 548.088 173.799 548.088C173.607 548.088 173.418 548.068 173.23 548.029C173.043 547.99 172.855 547.926 172.668 547.836C172.484 547.746 172.309 547.627 172.141 547.479C171.973 547.326 171.822 547.141 171.689 546.922ZM175.369 542.814C175.119 542.783 174.869 542.768 174.619 542.768C174.373 542.768 174.109 542.812 173.828 542.902C173.547 542.988 173.307 543.125 173.107 543.312C172.693 543.703 172.486 544.299 172.486 545.1C172.486 545.857 172.664 546.418 173.02 546.781C173.289 547.051 173.613 547.186 173.992 547.186C174.48 547.186 174.883 547.008 175.199 546.652C175.277 546.562 175.334 546.482 175.369 546.412V542.814ZM180.59 547.074C180.719 547.121 180.914 547.145 181.176 547.145C181.438 547.145 181.656 547.113 181.832 547.051V547.988C181.75 548.008 181.631 548.02 181.475 548.023L181.105 548.035C181.023 548.035 180.961 548.035 180.918 548.035C180.164 548.035 179.607 547.789 179.248 547.297C178.959 546.898 178.814 546.371 178.814 545.715V542.85H177.947V542.299L178.814 541.953L179.096 540.453H179.986V541.953H181.861V542.85H179.986V545.709C179.986 546.475 180.188 546.93 180.59 547.074ZM184.785 540.195C184.785 540.418 184.711 540.59 184.562 540.711C184.418 540.828 184.236 540.887 184.018 540.887C183.799 540.887 183.617 540.828 183.473 540.711C183.332 540.59 183.262 540.418 183.262 540.195C183.262 539.969 183.332 539.797 183.473 539.68C183.617 539.562 183.799 539.504 184.018 539.504C184.236 539.504 184.418 539.562 184.562 539.68C184.711 539.797 184.785 539.969 184.785 540.195ZM183.414 541.953H184.586V548H183.414V541.953ZM186.039 544.965C186.039 544.016 186.342 543.246 186.947 542.656C187.514 542.105 188.215 541.83 189.051 541.83C189.871 541.83 190.557 542.105 191.107 542.656C191.693 543.242 191.986 544.012 191.986 544.965C191.986 545.914 191.691 546.68 191.102 547.262C190.543 547.816 189.857 548.094 189.045 548.094C188.221 548.094 187.521 547.816 186.947 547.262C186.342 546.68 186.039 545.914 186.039 544.965ZM187.258 544.965C187.258 545.965 187.578 546.645 188.219 547.004C188.445 547.129 188.717 547.191 189.033 547.191C189.35 547.191 189.617 547.129 189.836 547.004C190.055 546.875 190.234 546.707 190.375 546.5C190.637 546.102 190.768 545.59 190.768 544.965C190.768 543.973 190.453 543.293 189.824 542.926C189.605 542.797 189.344 542.732 189.039 542.732C188.734 542.732 188.469 542.797 188.242 542.926C188.02 543.051 187.836 543.217 187.691 543.424C187.402 543.83 187.258 544.344 187.258 544.965ZM196.152 542.867C195.57 542.867 195.053 543.064 194.6 543.459V548H193.428V541.953H194.512L194.594 542.609C195.23 542.109 195.889 541.859 196.568 541.859C197.287 541.859 197.814 542.074 198.15 542.504C198.502 542.957 198.678 543.688 198.678 544.695V548H197.506V544.695C197.506 543.727 197.244 543.148 196.721 542.961C196.553 542.898 196.363 542.867 196.152 542.867ZM205.691 550.344H204.52V541.953H205.574L205.621 542.645C205.855 542.332 206.215 542.1 206.699 541.947C206.887 541.889 207.076 541.859 207.268 541.859C207.463 541.859 207.654 541.881 207.842 541.924C208.029 541.963 208.215 542.029 208.398 542.123C208.582 542.213 208.758 542.334 208.926 542.486C209.094 542.635 209.242 542.82 209.371 543.043C209.652 543.523 209.793 544.119 209.793 544.83C209.793 545.916 209.418 546.746 208.668 547.32C208.004 547.832 207.195 548.088 206.242 548.088H205.949C205.855 548.088 205.77 548.086 205.691 548.082V550.344ZM205.691 547.133C205.801 547.164 206.016 547.18 206.336 547.18C206.656 547.18 206.957 547.135 207.238 547.045C207.52 546.955 207.758 546.816 207.953 546.629C208.367 546.23 208.574 545.631 208.574 544.83C208.574 544.076 208.395 543.52 208.035 543.16C207.77 542.895 207.445 542.762 207.062 542.762C206.582 542.762 206.184 542.939 205.867 543.295C205.785 543.385 205.727 543.465 205.691 543.535V547.133ZM214.158 542.867C213.58 542.867 213.064 543.064 212.611 543.459V548H211.439V539.281H212.611V542.604C213.244 542.107 213.898 541.859 214.574 541.859C215.297 541.859 215.826 542.074 216.162 542.504C216.514 542.957 216.689 543.688 216.689 544.695V548H215.518V544.695C215.518 543.727 215.254 543.148 214.727 542.961C214.559 542.898 214.369 542.867 214.158 542.867ZM218.705 546.922C218.576 546.699 218.473 546.438 218.395 546.137C218.32 545.836 218.283 545.443 218.283 544.959C218.283 544.475 218.387 544.029 218.594 543.623C218.805 543.213 219.078 542.877 219.414 542.615C220.066 542.111 220.877 541.859 221.846 541.859C222.35 541.859 222.73 541.871 222.988 541.895C222.988 541.895 223.178 541.914 223.557 541.953V548H222.502L222.455 547.303C222.221 547.615 221.863 547.848 221.383 548C221.199 548.059 221.01 548.088 220.814 548.088C220.623 548.088 220.434 548.068 220.246 548.029C220.059 547.99 219.871 547.926 219.684 547.836C219.5 547.746 219.324 547.627 219.156 547.479C218.988 547.326 218.838 547.141 218.705 546.922ZM222.385 542.814C222.135 542.783 221.885 542.768 221.635 542.768C221.389 542.768 221.125 542.812 220.844 542.902C220.562 542.988 220.322 543.125 220.123 543.312C219.709 543.703 219.502 544.299 219.502 545.1C219.502 545.857 219.68 546.418 220.035 546.781C220.305 547.051 220.629 547.186 221.008 547.186C221.496 547.186 221.898 547.008 222.215 546.652C222.293 546.562 222.35 546.482 222.385 546.412V542.814ZM226.914 548.094C226.426 548.094 225.932 548.059 225.432 547.988V546.951C225.939 547.072 226.455 547.133 226.979 547.133C228.025 547.133 228.549 546.912 228.549 546.471C228.549 546.303 228.508 546.178 228.426 546.096C228.305 545.967 228.113 545.838 227.852 545.709L226.996 545.316C226.441 545.039 226.082 544.816 225.918 544.648C225.609 544.336 225.455 543.965 225.455 543.535C225.455 543.051 225.68 542.656 226.129 542.352C226.613 542.023 227.293 541.859 228.168 541.859C228.609 541.859 229.055 541.891 229.504 541.953V542.955C229.012 542.865 228.582 542.82 228.215 542.82C227.852 542.82 227.568 542.844 227.365 542.891C227.166 542.938 227.016 542.996 226.914 543.066C226.754 543.176 226.674 543.318 226.674 543.494C226.674 543.666 226.729 543.807 226.838 543.916C226.951 544.021 227.127 544.137 227.365 544.262L228.227 544.678C228.789 544.971 229.15 545.195 229.311 545.352C229.615 545.648 229.768 546.021 229.768 546.471C229.768 546.951 229.525 547.338 229.041 547.631C228.533 547.939 227.824 548.094 226.914 548.094ZM234.256 548.094C232.045 548.094 230.939 547.014 230.939 544.854C230.939 543.924 231.246 543.18 231.859 542.621C232.41 542.113 233.039 541.859 233.746 541.859C234.516 541.859 235.117 542.117 235.551 542.633C235.953 543.113 236.154 543.756 236.154 544.561V545.018H232.158C232.158 546.123 232.609 546.799 233.512 547.045C233.727 547.104 234.057 547.133 234.502 547.133C234.951 547.133 235.391 547.072 235.82 546.951V547.941C235.391 548.043 234.869 548.094 234.256 548.094ZM234.982 544.156C234.982 543.781 234.879 543.465 234.672 543.207C234.43 542.91 234.096 542.762 233.67 542.762C233.221 542.762 232.855 542.904 232.574 543.189C232.316 543.455 232.188 543.777 232.188 544.156H234.982ZM240.625 541.953H241.873L243.426 546.758L244.996 541.953H246.215L247.803 546.74L249.279 541.953H250.439L248.406 548H247.199L245.57 543.418L244.029 548H242.822L240.625 541.953ZM252.812 540.195C252.812 540.418 252.738 540.59 252.59 540.711C252.445 540.828 252.264 540.887 252.045 540.887C251.826 540.887 251.645 540.828 251.5 540.711C251.359 540.59 251.289 540.418 251.289 540.195C251.289 539.969 251.359 539.797 251.5 539.68C251.645 539.562 251.826 539.504 252.045 539.504C252.264 539.504 252.445 539.562 252.59 539.68C252.738 539.797 252.812 539.969 252.812 540.195ZM251.441 541.953H252.613V548H251.441V541.953ZM256.633 547.074C256.762 547.121 256.957 547.145 257.219 547.145C257.48 547.145 257.699 547.113 257.875 547.051V547.988C257.793 548.008 257.674 548.02 257.518 548.023L257.148 548.035C257.066 548.035 257.004 548.035 256.961 548.035C256.207 548.035 255.65 547.789 255.291 547.297C255.002 546.898 254.857 546.371 254.857 545.715V542.85H253.99V542.299L254.857 541.953L255.139 540.453H256.029V541.953H257.904V542.85H256.029V545.709C256.029 546.475 256.23 546.93 256.633 547.074ZM262.182 542.867C261.604 542.867 261.088 543.064 260.635 543.459V548H259.463V539.281H260.635V542.604C261.268 542.107 261.922 541.859 262.598 541.859C263.32 541.859 263.85 542.074 264.186 542.504C264.537 542.957 264.713 543.688 264.713 544.695V548H263.541V544.695C263.541 543.727 263.277 543.148 262.75 542.961C262.582 542.898 262.393 542.867 262.182 542.867ZM274.398 546.518V541.953H275.57V548H274.516L274.41 547.361C273.832 547.85 273.193 548.094 272.494 548.094C271.752 548.094 271.227 547.889 270.918 547.479C270.598 547.061 270.438 546.34 270.438 545.316V541.953H271.609V545.258C271.609 545.98 271.713 546.473 271.92 546.734C272.104 546.969 272.453 547.086 272.969 547.086C273.488 547.086 273.965 546.896 274.398 546.518ZM278.945 548.094C278.457 548.094 277.963 548.059 277.463 547.988V546.951C277.971 547.072 278.486 547.133 279.01 547.133C280.057 547.133 280.58 546.912 280.58 546.471C280.58 546.303 280.539 546.178 280.457 546.096C280.336 545.967 280.145 545.838 279.883 545.709L279.027 545.316C278.473 545.039 278.113 544.816 277.949 544.648C277.641 544.336 277.486 543.965 277.486 543.535C277.486 543.051 277.711 542.656 278.16 542.352C278.645 542.023 279.324 541.859 280.199 541.859C280.641 541.859 281.086 541.891 281.535 541.953V542.955C281.043 542.865 280.613 542.82 280.246 542.82C279.883 542.82 279.6 542.844 279.396 542.891C279.197 542.938 279.047 542.996 278.945 543.066C278.785 543.176 278.705 543.318 278.705 543.494C278.705 543.666 278.76 543.807 278.869 543.916C278.982 544.021 279.158 544.137 279.396 544.262L280.258 544.678C280.82 544.971 281.182 545.195 281.342 545.352C281.646 545.648 281.799 546.021 281.799 546.471C281.799 546.951 281.557 547.338 281.072 547.631C280.564 547.939 279.855 548.094 278.945 548.094ZM283.609 546.91H284.74V548C284.74 548.758 284.594 549.316 284.301 549.676C283.973 550.074 283.438 550.273 282.695 550.273V549.307C283.188 549.307 283.477 549.062 283.562 548.574C283.594 548.41 283.609 548.219 283.609 548V546.91ZM294.689 547.326C294.354 547.588 293.973 547.781 293.547 547.906C293.125 548.027 292.668 548.088 292.176 548.088C291.688 548.088 291.141 548.059 290.535 548V539.281H291.707V542.557C291.965 542.264 292.322 542.055 292.779 541.93C292.951 541.883 293.127 541.859 293.307 541.859C293.49 541.859 293.676 541.879 293.863 541.918C294.051 541.953 294.236 542.016 294.42 542.105C294.607 542.195 294.785 542.314 294.953 542.463C295.121 542.611 295.27 542.797 295.398 543.02C295.684 543.496 295.826 544.062 295.826 544.719C295.826 545.371 295.721 545.902 295.51 546.312C295.303 546.723 295.029 547.061 294.689 547.326ZM291.713 547.139C291.822 547.17 292.037 547.186 292.357 547.186C292.678 547.186 292.979 547.141 293.26 547.051C293.541 546.961 293.781 546.82 293.98 546.629C294.398 546.227 294.607 545.627 294.607 544.83C294.607 543.857 294.324 543.221 293.758 542.92C293.555 542.814 293.348 542.762 293.137 542.762C292.926 542.762 292.742 542.789 292.586 542.844C292.43 542.898 292.293 542.965 292.176 543.043C291.953 543.195 291.799 543.359 291.713 543.535V547.139ZM301.287 543.025C301.072 542.963 300.814 542.932 300.514 542.932C300.217 542.932 299.973 542.963 299.781 543.025C299.59 543.084 299.422 543.156 299.277 543.242C299.012 543.398 298.818 543.574 298.697 543.77V548H297.525V541.953H298.65L298.697 542.791C298.99 542.424 299.418 542.148 299.98 541.965C300.184 541.895 300.416 541.859 300.678 541.859C300.939 541.859 301.143 541.879 301.287 541.918V543.025ZM303.812 540.195C303.812 540.418 303.738 540.59 303.59 540.711C303.445 540.828 303.264 540.887 303.045 540.887C302.826 540.887 302.645 540.828 302.5 540.711C302.359 540.59 302.289 540.418 302.289 540.195C302.289 539.969 302.359 539.797 302.5 539.68C302.645 539.562 302.826 539.504 303.045 539.504C303.264 539.504 303.445 539.562 303.59 539.68C303.738 539.797 303.812 539.969 303.812 540.195ZM302.441 541.953H303.613V548H302.441V541.953ZM308.184 542.867C307.602 542.867 307.084 543.064 306.631 543.459V548H305.459V541.953H306.543L306.625 542.609C307.262 542.109 307.92 541.859 308.6 541.859C309.318 541.859 309.846 542.074 310.182 542.504C310.533 542.957 310.709 543.688 310.709 544.695V548H309.537V544.695C309.537 543.727 309.275 543.148 308.752 542.961C308.584 542.898 308.395 542.867 308.184 542.867ZM315.906 550.309C315.566 550.395 315.129 550.438 314.594 550.438C314.062 550.438 313.674 550.398 313.428 550.32V549.277C313.736 549.41 314.113 549.477 314.559 549.477C315.008 549.48 315.338 549.451 315.549 549.389C315.76 549.326 315.926 549.225 316.047 549.084C316.266 548.83 316.375 548.371 316.375 547.707V547.396C316.078 547.693 315.688 547.9 315.203 548.018C315.008 548.064 314.812 548.088 314.617 548.088C314.422 548.088 314.23 548.066 314.043 548.023C313.859 547.98 313.676 547.912 313.492 547.818C313.309 547.721 313.133 547.596 312.965 547.443C312.797 547.287 312.648 547.094 312.52 546.863C312.23 546.363 312.086 545.748 312.086 545.018C312.078 544.342 312.273 543.748 312.672 543.236C313.016 542.791 313.488 542.445 314.09 542.199C314.637 541.973 315.229 541.859 315.865 541.859C316.502 541.859 317.062 541.891 317.547 541.953V547.707C317.547 549.168 317 550.035 315.906 550.309ZM316.375 542.809C316.125 542.777 315.879 542.762 315.637 542.762C315.395 542.762 315.123 542.807 314.822 542.896C314.521 542.986 314.258 543.123 314.031 543.307C313.535 543.709 313.287 544.279 313.287 545.018C313.287 545.818 313.48 546.402 313.867 546.77C314.156 547.047 314.51 547.186 314.928 547.186C315.432 547.186 315.855 547.008 316.199 546.652C316.281 546.562 316.34 546.482 316.375 546.412V542.809ZM323.729 546.922C323.6 546.699 323.496 546.438 323.418 546.137C323.344 545.836 323.307 545.443 323.307 544.959C323.307 544.475 323.41 544.029 323.617 543.623C323.828 543.213 324.102 542.877 324.438 542.615C325.09 542.111 325.9 541.859 326.869 541.859C327.373 541.859 327.754 541.871 328.012 541.895C328.012 541.895 328.201 541.914 328.58 541.953V548H327.525L327.479 547.303C327.244 547.615 326.887 547.848 326.406 548C326.223 548.059 326.033 548.088 325.838 548.088C325.646 548.088 325.457 548.068 325.27 548.029C325.082 547.99 324.895 547.926 324.707 547.836C324.523 547.746 324.348 547.627 324.18 547.479C324.012 547.326 323.861 547.141 323.729 546.922ZM327.408 542.814C327.158 542.783 326.908 542.768 326.658 542.768C326.412 542.768 326.148 542.812 325.867 542.902C325.586 542.988 325.346 543.125 325.146 543.312C324.732 543.703 324.525 544.299 324.525 545.1C324.525 545.857 324.703 546.418 325.059 546.781C325.328 547.051 325.652 547.186 326.031 547.186C326.52 547.186 326.922 547.008 327.238 546.652C327.316 546.562 327.373 546.482 327.408 546.412V542.814ZM333.18 542.867C332.598 542.867 332.08 543.064 331.627 543.459V548H330.455V541.953H331.539L331.621 542.609C332.258 542.109 332.916 541.859 333.596 541.859C334.314 541.859 334.842 542.074 335.178 542.504C335.529 542.957 335.705 543.688 335.705 544.695V548H334.533V544.695C334.533 543.727 334.271 543.148 333.748 542.961C333.58 542.898 333.391 542.867 333.18 542.867ZM114.18 568.094C111.969 568.094 110.863 567.014 110.863 564.854C110.863 563.924 111.17 563.18 111.783 562.621C112.334 562.113 112.963 561.859 113.67 561.859C114.439 561.859 115.041 562.117 115.475 562.633C115.877 563.113 116.078 563.756 116.078 564.561V565.018H112.082C112.082 566.123 112.533 566.799 113.436 567.045C113.65 567.104 113.98 567.133 114.426 567.133C114.875 567.133 115.314 567.072 115.744 566.951V567.941C115.314 568.043 114.793 568.094 114.18 568.094ZM114.906 564.156C114.906 563.781 114.803 563.465 114.596 563.207C114.354 562.91 114.02 562.762 113.594 562.762C113.145 562.762 112.779 562.904 112.498 563.189C112.24 563.455 112.111 563.777 112.111 564.156H114.906ZM118.797 564.965L116.717 561.953H118.047L119.488 564.139L121.029 561.953H122.342L120.092 564.959L122.289 568H120.965L119.424 565.797L117.912 568H116.582L118.797 564.965ZM124.744 560.195C124.744 560.418 124.67 560.59 124.521 560.711C124.377 560.828 124.195 560.887 123.977 560.887C123.758 560.887 123.576 560.828 123.432 560.711C123.291 560.59 123.221 560.418 123.221 560.195C123.221 559.969 123.291 559.797 123.432 559.68C123.576 559.562 123.758 559.504 123.977 559.504C124.195 559.504 124.377 559.562 124.521 559.68C124.67 559.797 124.744 559.969 124.744 560.195ZM123.373 561.953H124.545V568H123.373V561.953ZM128.564 567.074C128.693 567.121 128.889 567.145 129.15 567.145C129.412 567.145 129.631 567.113 129.807 567.051V567.988C129.725 568.008 129.605 568.02 129.449 568.023L129.08 568.035C128.998 568.035 128.936 568.035 128.893 568.035C128.139 568.035 127.582 567.789 127.223 567.297C126.934 566.898 126.789 566.371 126.789 565.715V562.85H125.922V562.299L126.789 561.953L127.07 560.453H127.961V561.953H129.836V562.85H127.961V565.709C127.961 566.475 128.162 566.93 128.564 567.074ZM132.76 560.195C132.76 560.418 132.686 560.59 132.537 560.711C132.393 560.828 132.211 560.887 131.992 560.887C131.773 560.887 131.592 560.828 131.447 560.711C131.307 560.59 131.236 560.418 131.236 560.195C131.236 559.969 131.307 559.797 131.447 559.68C131.592 559.562 131.773 559.504 131.992 559.504C132.211 559.504 132.393 559.562 132.537 559.68C132.686 559.797 132.76 559.969 132.76 560.195ZM131.389 561.953H132.561V568H131.389V561.953ZM137.131 562.867C136.549 562.867 136.031 563.064 135.578 563.459V568H134.406V561.953H135.49L135.572 562.609C136.209 562.109 136.867 561.859 137.547 561.859C138.266 561.859 138.793 562.074 139.129 562.504C139.48 562.957 139.656 563.688 139.656 564.695V568H138.484V564.695C138.484 563.727 138.223 563.148 137.699 562.961C137.531 562.898 137.342 562.867 137.131 562.867ZM144.854 570.309C144.514 570.395 144.076 570.438 143.541 570.438C143.01 570.438 142.621 570.398 142.375 570.32V569.277C142.684 569.41 143.061 569.477 143.506 569.477C143.955 569.48 144.285 569.451 144.496 569.389C144.707 569.326 144.873 569.225 144.994 569.084C145.213 568.83 145.322 568.371 145.322 567.707V567.396C145.025 567.693 144.635 567.9 144.15 568.018C143.955 568.064 143.76 568.088 143.564 568.088C143.369 568.088 143.178 568.066 142.99 568.023C142.807 567.98 142.623 567.912 142.439 567.818C142.256 567.721 142.08 567.596 141.912 567.443C141.744 567.287 141.596 567.094 141.467 566.863C141.178 566.363 141.033 565.748 141.033 565.018C141.025 564.342 141.221 563.748 141.619 563.236C141.963 562.791 142.436 562.445 143.037 562.199C143.584 561.973 144.176 561.859 144.812 561.859C145.449 561.859 146.01 561.891 146.494 561.953V567.707C146.494 569.168 145.947 570.035 144.854 570.309ZM145.322 562.809C145.072 562.777 144.826 562.762 144.584 562.762C144.342 562.762 144.07 562.807 143.77 562.896C143.469 562.986 143.205 563.123 142.979 563.307C142.482 563.709 142.234 564.279 142.234 565.018C142.234 565.818 142.428 566.402 142.814 566.77C143.104 567.047 143.457 567.186 143.875 567.186C144.379 567.186 144.803 567.008 145.146 566.652C145.229 566.562 145.287 566.482 145.322 566.412V562.809ZM153.889 568.094C153.4 568.094 152.906 568.059 152.406 567.988V566.951C152.914 567.072 153.43 567.133 153.953 567.133C155 567.133 155.523 566.912 155.523 566.471C155.523 566.303 155.482 566.178 155.4 566.096C155.279 565.967 155.088 565.838 154.826 565.709L153.971 565.316C153.416 565.039 153.057 564.816 152.893 564.648C152.584 564.336 152.43 563.965 152.43 563.535C152.43 563.051 152.654 562.656 153.104 562.352C153.588 562.023 154.268 561.859 155.143 561.859C155.584 561.859 156.029 561.891 156.479 561.953V562.955C155.986 562.865 155.557 562.82 155.189 562.82C154.826 562.82 154.543 562.844 154.34 562.891C154.141 562.938 153.99 562.996 153.889 563.066C153.729 563.176 153.648 563.318 153.648 563.494C153.648 563.666 153.703 563.807 153.812 563.916C153.926 564.021 154.102 564.137 154.34 564.262L155.201 564.678C155.764 564.971 156.125 565.195 156.285 565.352C156.59 565.648 156.742 566.021 156.742 566.471C156.742 566.951 156.5 567.338 156.016 567.631C155.508 567.939 154.799 568.094 153.889 568.094ZM159.666 570.344H158.494V561.953H159.549L159.596 562.645C159.83 562.332 160.189 562.1 160.674 561.947C160.861 561.889 161.051 561.859 161.242 561.859C161.438 561.859 161.629 561.881 161.816 561.924C162.004 561.963 162.189 562.029 162.373 562.123C162.557 562.213 162.732 562.334 162.9 562.486C163.068 562.635 163.217 562.82 163.346 563.043C163.627 563.523 163.768 564.119 163.768 564.83C163.768 565.916 163.393 566.746 162.643 567.32C161.979 567.832 161.17 568.088 160.217 568.088H159.924C159.83 568.088 159.744 568.086 159.666 568.082V570.344ZM159.666 567.133C159.775 567.164 159.99 567.18 160.311 567.18C160.631 567.18 160.932 567.135 161.213 567.045C161.494 566.955 161.732 566.816 161.928 566.629C162.342 566.23 162.549 565.631 162.549 564.83C162.549 564.076 162.369 563.52 162.01 563.16C161.744 562.895 161.42 562.762 161.037 562.762C160.557 562.762 160.158 562.939 159.842 563.295C159.76 563.385 159.701 563.465 159.666 563.535V567.133ZM168.238 568.094C166.027 568.094 164.922 567.014 164.922 564.854C164.922 563.924 165.229 563.18 165.842 562.621C166.393 562.113 167.021 561.859 167.729 561.859C168.498 561.859 169.1 562.117 169.533 562.633C169.936 563.113 170.137 563.756 170.137 564.561V565.018H166.141C166.141 566.123 166.592 566.799 167.494 567.045C167.709 567.104 168.039 567.133 168.484 567.133C168.934 567.133 169.373 567.072 169.803 566.951V567.941C169.373 568.043 168.852 568.094 168.238 568.094ZM168.965 564.156C168.965 563.781 168.861 563.465 168.654 563.207C168.412 562.91 168.078 562.762 167.652 562.762C167.203 562.762 166.838 562.904 166.557 563.189C166.299 563.455 166.17 563.777 166.17 564.156H168.965ZM175.768 567.982C175.533 568.057 175.127 568.094 174.549 568.094C173.971 568.094 173.479 568.023 173.072 567.883C172.67 567.742 172.326 567.535 172.041 567.262C171.451 566.695 171.156 565.91 171.156 564.906C171.156 563.934 171.51 563.168 172.217 562.609C172.85 562.109 173.627 561.859 174.549 561.859C175.119 561.859 175.51 561.879 175.721 561.918V562.961C175.393 562.855 175.018 562.803 174.596 562.803C174.178 562.803 173.83 562.861 173.553 562.979C173.275 563.092 173.049 563.246 172.873 563.441C172.541 563.812 172.375 564.301 172.375 564.906C172.375 565.93 172.744 566.611 173.482 566.951C173.744 567.072 174 567.133 174.25 567.133C174.5 567.133 174.691 567.127 174.824 567.115C174.961 567.104 175.09 567.088 175.211 567.068C175.469 567.025 175.654 566.98 175.768 566.934V567.982ZM180.584 561.953H181.844L183.49 566.857L185.143 561.953H186.396L184.082 568H182.904L180.584 561.953ZM188.764 560.195C188.764 560.418 188.689 560.59 188.541 560.711C188.396 560.828 188.215 560.887 187.996 560.887C187.777 560.887 187.596 560.828 187.451 560.711C187.311 560.59 187.24 560.418 187.24 560.195C187.24 559.969 187.311 559.797 187.451 559.68C187.596 559.562 187.777 559.504 187.996 559.504C188.215 559.504 188.396 559.562 188.541 559.68C188.689 559.797 188.764 559.969 188.764 560.195ZM187.393 561.953H188.564V568H187.393V561.953ZM190.68 566.922C190.551 566.699 190.447 566.438 190.369 566.137C190.295 565.836 190.258 565.443 190.258 564.959C190.258 564.475 190.361 564.029 190.568 563.623C190.779 563.213 191.053 562.877 191.389 562.615C192.041 562.111 192.852 561.859 193.82 561.859C194.324 561.859 194.705 561.871 194.963 561.895C194.963 561.895 195.152 561.914 195.531 561.953V568H194.477L194.43 567.303C194.195 567.615 193.838 567.848 193.357 568C193.174 568.059 192.984 568.088 192.789 568.088C192.598 568.088 192.408 568.068 192.221 568.029C192.033 567.99 191.846 567.926 191.658 567.836C191.475 567.746 191.299 567.627 191.131 567.479C190.963 567.326 190.812 567.141 190.68 566.922ZM194.359 562.814C194.109 562.783 193.859 562.768 193.609 562.768C193.363 562.768 193.1 562.812 192.818 562.902C192.537 562.988 192.297 563.125 192.098 563.312C191.684 563.703 191.477 564.299 191.477 565.1C191.477 565.857 191.654 566.418 192.01 566.781C192.279 567.051 192.604 567.186 192.982 567.186C193.471 567.186 193.873 567.008 194.189 566.652C194.268 566.562 194.324 566.482 194.359 566.412V562.814ZM202.768 560.195C202.768 560.418 202.693 560.59 202.545 560.711C202.4 560.828 202.219 560.887 202 560.887C201.781 560.887 201.6 560.828 201.455 560.711C201.314 560.59 201.244 560.418 201.244 560.195C201.244 559.969 201.314 559.797 201.455 559.68C201.6 559.562 201.781 559.504 202 559.504C202.219 559.504 202.4 559.562 202.545 559.68C202.693 559.797 202.768 559.969 202.768 560.195ZM201.396 561.953H202.568V568H201.396V561.953ZM207.484 560.16C207.344 560.113 207.148 560.09 206.898 560.09C206.648 560.09 206.449 560.113 206.301 560.16C206.156 560.207 206.041 560.275 205.955 560.365C205.807 560.525 205.732 560.787 205.732 561.15V561.953H207.244V562.85H205.732V568H204.561V562.85H203.834V562.299L204.561 561.953V561.309C204.561 560.898 204.596 560.59 204.666 560.383C204.74 560.176 204.828 560.004 204.93 559.867C205.031 559.73 205.168 559.611 205.34 559.51C205.703 559.295 206.213 559.188 206.869 559.188C207.143 559.188 207.348 559.203 207.484 559.234V560.16ZM212.166 569.5C212.271 569.531 212.414 569.547 212.594 569.547C212.777 569.547 212.965 569.51 213.156 569.436C213.348 569.365 213.514 569.266 213.654 569.137C213.889 568.926 214.102 568.594 214.293 568.141L211.809 561.953H213.057L214.803 566.77L216.367 561.953H217.604L215.119 568.744C214.932 569.252 214.672 569.641 214.34 569.91C213.902 570.262 213.318 570.438 212.588 570.438C212.521 570.438 212.453 570.434 212.383 570.426L212.166 570.402V569.5ZM218.037 564.965C218.037 564.016 218.34 563.246 218.945 562.656C219.512 562.105 220.213 561.83 221.049 561.83C221.869 561.83 222.555 562.105 223.105 562.656C223.691 563.242 223.984 564.012 223.984 564.965C223.984 565.914 223.689 566.68 223.1 567.262C222.541 567.816 221.855 568.094 221.043 568.094C220.219 568.094 219.52 567.816 218.945 567.262C218.34 566.68 218.037 565.914 218.037 564.965ZM219.256 564.965C219.256 565.965 219.576 566.645 220.217 567.004C220.443 567.129 220.715 567.191 221.031 567.191C221.348 567.191 221.615 567.129 221.834 567.004C222.053 566.875 222.232 566.707 222.373 566.5C222.635 566.102 222.766 565.59 222.766 564.965C222.766 563.973 222.451 563.293 221.822 562.926C221.604 562.797 221.342 562.732 221.037 562.732C220.732 562.732 220.467 562.797 220.24 562.926C220.018 563.051 219.834 563.217 219.689 563.424C219.4 563.83 219.256 564.344 219.256 564.965ZM229.369 566.518V561.953H230.541V568H229.486L229.381 567.361C228.803 567.85 228.164 568.094 227.465 568.094C226.723 568.094 226.197 567.889 225.889 567.479C225.568 567.061 225.408 566.34 225.408 565.316V561.953H226.58V565.258C226.58 565.98 226.684 566.473 226.891 566.734C227.074 566.969 227.424 567.086 227.939 567.086C228.459 567.086 228.936 566.896 229.369 566.518ZM236.682 559.281H237.854V565.709C237.854 566.482 238.029 566.938 238.381 567.074C238.498 567.121 238.623 567.145 238.756 567.145C238.889 567.145 239.008 567.129 239.113 567.098V568L238.896 568.023C238.826 568.031 238.758 568.035 238.691 568.035C237.941 568.035 237.4 567.789 237.068 567.297C236.811 566.91 236.682 566.383 236.682 565.715V559.281ZM241.803 560.195C241.803 560.418 241.729 560.59 241.58 560.711C241.436 560.828 241.254 560.887 241.035 560.887C240.816 560.887 240.635 560.828 240.49 560.711C240.35 560.59 240.279 560.418 240.279 560.195C240.279 559.969 240.35 559.797 240.49 559.68C240.635 559.562 240.816 559.504 241.035 559.504C241.254 559.504 241.436 559.562 241.58 559.68C241.729 559.797 241.803 559.969 241.803 560.195ZM240.432 561.953H241.604V568H240.432V561.953ZM243.537 559.287H244.709V564.66L247.158 561.953H248.553L245.945 564.695L248.688 568H247.258L244.709 564.918V568H243.537V559.287ZM252.273 568.094C250.062 568.094 248.957 567.014 248.957 564.854C248.957 563.924 249.264 563.18 249.877 562.621C250.428 562.113 251.057 561.859 251.764 561.859C252.533 561.859 253.135 562.117 253.568 562.633C253.971 563.113 254.172 563.756 254.172 564.561V565.018H250.176C250.176 566.123 250.627 566.799 251.529 567.045C251.744 567.104 252.074 567.133 252.52 567.133C252.969 567.133 253.408 567.072 253.838 566.951V567.941C253.408 568.043 252.887 568.094 252.273 568.094ZM253 564.156C253 563.781 252.896 563.465 252.689 563.207C252.447 562.91 252.113 562.762 251.688 562.762C251.238 562.762 250.873 562.904 250.592 563.189C250.334 563.455 250.205 563.777 250.205 564.156H253Z" fill="#343A62"/>
<path d="M157 26C157 11.6406 168.641 0 183 0C197.359 0 209 11.6406 209 26C209 40.3594 197.359 52 183 52C168.641 52 157 40.3594 157 26Z" fill="#11142C"/>
<path d="M185.353 29.729C185.563 29.729 185.726 29.7873 185.843 29.904C185.964 30.0207 186.025 30.1747 186.025 30.366V31.5H178.983V30.87C178.983 30.7487 179.009 30.618 179.06 30.478C179.111 30.3333 179.198 30.2027 179.319 30.086L182.329 27.069C182.586 26.8123 182.812 26.5673 183.008 26.334C183.204 26.096 183.367 25.865 183.498 25.641C183.629 25.4123 183.727 25.1813 183.792 24.948C183.857 24.7147 183.89 24.4697 183.89 24.213C183.89 23.7603 183.773 23.4173 183.54 23.184C183.307 22.946 182.978 22.827 182.553 22.827C182.366 22.827 182.194 22.855 182.035 22.911C181.881 22.9623 181.741 23.0347 181.615 23.128C181.494 23.2213 181.389 23.331 181.3 23.457C181.211 23.583 181.146 23.7207 181.104 23.87C181.02 24.1033 180.906 24.2597 180.761 24.339C180.621 24.4137 180.42 24.43 180.159 24.388L179.137 24.206C179.212 23.7113 179.352 23.2773 179.557 22.904C179.762 22.5307 180.019 22.2203 180.327 21.973C180.635 21.7257 180.987 21.5413 181.384 21.42C181.781 21.294 182.208 21.231 182.665 21.231C183.146 21.231 183.582 21.3033 183.974 21.448C184.371 21.588 184.709 21.7863 184.989 22.043C185.269 22.295 185.486 22.6007 185.64 22.96C185.794 23.3193 185.871 23.716 185.871 24.15C185.871 24.5233 185.817 24.8687 185.71 25.186C185.603 25.5033 185.456 25.8067 185.269 26.096C185.087 26.3807 184.875 26.6583 184.632 26.929C184.389 27.1997 184.133 27.4727 183.862 27.748L181.706 29.953C181.944 29.883 182.18 29.8293 182.413 29.792C182.646 29.75 182.866 29.729 183.071 29.729H185.353Z" fill="white"/>
<defs>
<clipPath id="clip0_18055_50185">
<rect width="275" height="380" fill="white" transform="translate(45 74)"/>
</clipPath>
</defs>
</svg>
