<svg width="1439" height="768" viewBox="0 0 1439 768" fill="none" xmlns="http://www.w3.org/2000/svg">
<path d="M1438 666.398C1438 669.085 1435.66 671.174 1432.99 670.87L1105.49 633.607C1103.22 633.349 1101.5 631.425 1101.5 629.137L1101.5 138.863C1101.5 136.575 1103.22 134.651 1105.49 134.393L1432.99 97.1299C1435.66 96.8261 1438 98.9148 1438 101.602L1438 666.398Z" fill="#11142C" stroke="#343A62"/>
<path d="M0.5 101.602C0.5 98.9148 2.83922 96.8261 5.50879 97.1299L333.009 134.393C335.282 134.651 337 136.575 337 138.863V629.137C337 631.425 335.282 633.349 333.009 633.607L5.50879 670.87C2.83922 671.174 0.5 669.085 0.5 666.398V101.602Z" fill="#11142C" stroke="#343A62"/>
<path d="M1221 666.398C1221 669.085 1218.66 671.174 1215.99 670.87L888.491 633.607C886.218 633.349 884.5 631.425 884.5 629.137L884.5 138.863C884.5 136.575 886.218 134.651 888.491 134.393L1215.99 97.1299C1218.66 96.8261 1221 98.9148 1221 101.602L1221 666.398Z" fill="#11142C" stroke="#343A62"/>
<path d="M217.5 101.602C217.5 98.9148 219.839 96.8261 222.509 97.1299L550.009 134.393C552.282 134.651 554 136.575 554 138.863V629.137C554 631.425 552.282 633.349 550.009 633.607L222.509 670.87C219.839 671.174 217.5 669.085 217.5 666.398V101.602Z" fill="#11142C" stroke="#343A62"/>
<rect x="494.5" y="0.5" width="449" height="767" rx="9.5" fill="#11142C" stroke="#343A62"/>
<path d="M776.179 305.315L766.707 300.02L747.283 310.955L730.976 319.933L727.139 322.005L651 364.25V374.724C651 381.631 654.837 387.962 661.072 391.415L670.544 396.71L747.283 354.235V364.25L679.657 401.775L708.674 417.89C714.909 421.343 722.582 421.343 728.817 417.89L747.283 407.645L776.299 391.53C782.534 388.077 786.371 381.746 786.371 374.84V322.12C786.251 315.214 782.414 308.768 776.179 305.315Z" fill="#1B2240" fill-opacity="0.6"/>
<path d="M679.057 295.415L661.072 305.429C654.837 308.767 651 315.213 651 322.12V354.235L718.146 317.055L679.057 295.415Z" fill="#1B2240" fill-opacity="0.6"/>
<path d="M747.283 300.825L757.714 295.07L747.283 289.314L728.698 279.07C722.463 275.617 714.789 275.617 708.554 279.07L688.17 290.35L727.259 311.991L747.283 300.825Z" fill="#343A62"/>
</svg>
